<mxfile host="app.diagrams.net" agent="Mozilla/5.0 (Windows NT 10.0; Win64; x64) AppleWebKit/537.36 (KHTML, like Gecko) Chrome/137.0.0.0 Safari/537.36" version="27.1.4">
  <diagram name="Seite-1" id="aL-hVNjjQDXxCaIc-2pr">
    <mxGraphModel grid="1" page="1" gridSize="10" guides="1" tooltips="1" connect="1" arrows="1" fold="1" pageScale="1" pageWidth="1200" pageHeight="1000" math="0" shadow="0">
      <root>
        <mxCell id="0" />
        <mxCell id="1" parent="0" />
        <mxCell id="KYULwdcVp-yhQWViKKO0-4" style="edgeStyle=orthogonalEdgeStyle;rounded=0;orthogonalLoop=1;jettySize=auto;html=1;entryX=0;entryY=0.5;entryDx=0;entryDy=0;" edge="1" parent="1" source="_ITIzE4KJAf3eLk_w8do-1" target="_ITIzE4KJAf3eLk_w8do-21">
          <mxGeometry relative="1" as="geometry" />
        </mxCell>
        <mxCell id="_ITIzE4KJAf3eLk_w8do-1" value="Gemma3" style="rounded=0;whiteSpace=wrap;html=1;labelBackgroundColor=none;" vertex="1" parent="1">
          <mxGeometry x="510" y="500" width="120" height="60" as="geometry" />
        </mxCell>
        <mxCell id="KYULwdcVp-yhQWViKKO0-5" style="edgeStyle=orthogonalEdgeStyle;rounded=0;orthogonalLoop=1;jettySize=auto;html=1;entryX=0.5;entryY=0;entryDx=0;entryDy=0;" edge="1" parent="1" source="_ITIzE4KJAf3eLk_w8do-6" target="_ITIzE4KJAf3eLk_w8do-22">
          <mxGeometry relative="1" as="geometry" />
        </mxCell>
        <mxCell id="_ITIzE4KJAf3eLk_w8do-6" value="Checklist" style="shape=note;whiteSpace=wrap;html=1;backgroundOutline=1;darkOpacity=0.05;labelBackgroundColor=none;" vertex="1" parent="1">
          <mxGeometry x="350" y="340" width="80" height="100" as="geometry" />
        </mxCell>
        <mxCell id="_ITIzE4KJAf3eLk_w8do-10" style="edgeStyle=orthogonalEdgeStyle;rounded=0;orthogonalLoop=1;jettySize=auto;html=1;entryX=0;entryY=0.5;entryDx=0;entryDy=0;labelBackgroundColor=none;fontColor=default;" edge="1" parent="1" source="_ITIzE4KJAf3eLk_w8do-7" target="_ITIzE4KJAf3eLk_w8do-8">
          <mxGeometry relative="1" as="geometry" />
        </mxCell>
        <mxCell id="_ITIzE4KJAf3eLk_w8do-7" value="Research paper" style="shape=note;whiteSpace=wrap;html=1;backgroundOutline=1;darkOpacity=0.05;labelBackgroundColor=none;" vertex="1" parent="1">
          <mxGeometry x="10" y="480" width="80" height="100" as="geometry" />
        </mxCell>
        <mxCell id="KYULwdcVp-yhQWViKKO0-1" style="edgeStyle=orthogonalEdgeStyle;rounded=0;orthogonalLoop=1;jettySize=auto;html=1;entryX=0;entryY=0.5;entryDx=0;entryDy=0;" edge="1" parent="1" source="_ITIzE4KJAf3eLk_w8do-8" target="_ITIzE4KJAf3eLk_w8do-22">
          <mxGeometry relative="1" as="geometry" />
        </mxCell>
        <mxCell id="_ITIzE4KJAf3eLk_w8do-8" value="Context-Slicing" style="rounded=0;whiteSpace=wrap;html=1;labelBackgroundColor=none;" vertex="1" parent="1">
          <mxGeometry x="150" y="500" width="120" height="60" as="geometry" />
        </mxCell>
        <mxCell id="_ITIzE4KJAf3eLk_w8do-21" value="Evaluation" style="rounded=0;whiteSpace=wrap;html=1;labelBackgroundColor=none;" vertex="1" parent="1">
          <mxGeometry x="690" y="500" width="120" height="60" as="geometry" />
        </mxCell>
        <mxCell id="KYULwdcVp-yhQWViKKO0-3" style="edgeStyle=orthogonalEdgeStyle;rounded=0;orthogonalLoop=1;jettySize=auto;html=1;entryX=0;entryY=0.5;entryDx=0;entryDy=0;" edge="1" parent="1" source="_ITIzE4KJAf3eLk_w8do-22" target="_ITIzE4KJAf3eLk_w8do-1">
          <mxGeometry relative="1" as="geometry" />
        </mxCell>
        <mxCell id="_ITIzE4KJAf3eLk_w8do-22" value="Prompt Engineering" style="rounded=0;whiteSpace=wrap;html=1;labelBackgroundColor=none;" vertex="1" parent="1">
          <mxGeometry x="330" y="500" width="120" height="60" as="geometry" />
        </mxCell>
      </root>
    </mxGraphModel>
  </diagram>
</mxfile>
